<svg width="14" height="14" viewBox="0 0 14 14" fill="none" xmlns="http://www.w3.org/2000/svg">
<path fill-rule="evenodd" clip-rule="evenodd" d="M1.69026 7.00037C1.69026 5.58581 2.25713 4.22919 3.26618 3.22895C4.27522 2.2287 5.64378 1.66677 7.07079 1.66677C8.49779 1.66677 9.86635 2.2287 10.8754 3.22895C11.8844 4.22919 12.4513 5.58581 12.4513 7.00037C12.4513 8.41492 11.8844 9.77154 10.8754 10.7718C9.86635 11.772 8.49779 12.334 7.07079 12.334C5.64378 12.334 4.27522 11.772 3.26618 10.7718C2.25713 9.77154 1.69026 8.41492 1.69026 7.00037ZM7.07079 0.333374C3.3562 0.333374 0.345123 3.31819 0.345123 7.00037C0.345123 10.6825 3.3562 13.6674 7.07079 13.6674C10.7854 13.6674 13.7964 10.6825 13.7964 7.00037C13.7964 3.31819 10.7854 0.333374 7.07079 0.333374ZM7.74335 3.00017C7.74335 2.82335 7.67249 2.65377 7.54636 2.52874C7.42023 2.40371 7.24916 2.33347 7.07079 2.33347C6.89241 2.33347 6.72134 2.40371 6.59521 2.52874C6.46908 2.65377 6.39822 2.82335 6.39822 3.00017V7.00037C6.39826 7.17717 6.46914 7.34672 6.59528 7.47172L8.61298 9.47182C8.73983 9.59326 8.90972 9.66046 9.08606 9.65894C9.26241 9.65742 9.4311 9.58731 9.5558 9.4637C9.6805 9.34009 9.75123 9.17287 9.75276 8.99806C9.75429 8.82326 9.6865 8.65485 9.56399 8.52911L7.74335 6.72435V3.00017Z" fill="#41445B"/>
</svg>
