<svg width="34" height="30" viewBox="0 0 34 30" fill="none" xmlns="http://www.w3.org/2000/svg">
<path fill-rule="evenodd" clip-rule="evenodd" d="M16.0226 0.516113C16.2861 0.264954 16.6361 0.124844 17.0001 0.124844C17.3641 0.124844 17.7141 0.264954 17.9776 0.516113L29.3109 11.3097L32.8526 14.6814C33.125 14.9406 33.2833 15.2974 33.2926 15.6734C33.3018 16.0493 33.1614 16.4135 32.9022 16.6859C32.6429 16.9583 32.2861 17.1166 31.9102 17.1259C31.5342 17.1352 31.17 16.9948 30.8976 16.7355L29.7501 15.6404V26.3334C29.7501 27.0849 29.4516 27.8055 28.9202 28.3369C28.3889 28.8683 27.6682 29.1668 26.9168 29.1668H7.08343C6.33198 29.1668 5.61131 28.8683 5.07996 28.3369C4.54861 27.8055 4.2501 27.0849 4.2501 26.3334V15.6404L3.1026 16.7341C2.83057 16.9934 2.4667 17.1339 2.09104 17.1249C1.71537 17.1159 1.35868 16.958 1.09943 16.6859C0.84018 16.4139 0.69961 16.05 0.708643 15.6744C0.717676 15.2987 0.875572 14.942 1.1476 14.6828L4.68926 11.3097L16.0226 0.514697V0.516113ZM7.08343 12.9431V26.3334H12.7501V19.2501C12.7501 18.1229 13.1979 17.0419 13.9949 16.2449C14.7919 15.4479 15.8729 15.0001 17.0001 15.0001C18.1273 15.0001 19.2083 15.4479 20.0053 16.2449C20.8023 17.0419 21.2501 18.1229 21.2501 19.2501V26.3334H26.9168V12.9431L17.0001 3.49678L7.08343 12.9417V12.9431ZM18.4168 26.3334V19.2501C18.4168 18.8744 18.2675 18.514 18.0018 18.2484C17.7362 17.9827 17.3758 17.8334 17.0001 17.8334C16.6244 17.8334 16.264 17.9827 15.9984 18.2484C15.7327 18.514 15.5834 18.8744 15.5834 19.2501V26.3334H18.4168Z" fill="white"/>
</svg>
