<svg width="17" height="17" viewBox="0 0 17 17" fill="none" xmlns="http://www.w3.org/2000/svg">
<path fill-rule="evenodd" clip-rule="evenodd" d="M1.67205 7.11249C1.6863 4.22687 4.03914 1.87325 6.92555 1.85979C7.608 1.85484 8.28462 1.9856 8.91607 2.24448C9.54753 2.50336 10.1212 2.88519 10.6038 3.36776C11.0864 3.85033 11.4682 4.42402 11.7271 5.05548C11.9859 5.68693 12.1167 6.36355 12.1118 7.04599C12.1098 7.49426 12.0505 7.94043 11.9352 8.37362C11.8992 8.50867 11.8995 8.65087 11.9362 8.78575C11.9729 8.92063 12.0447 9.04338 12.1442 9.14154L12.9723 9.95854L11.3692 11.5617L9.93943 12.9914L9.77635 13.1545L8.95064 12.328C8.85254 12.2297 8.73031 12.1589 8.59622 12.1228C8.46212 12.0867 8.32088 12.0864 8.18668 12.1222C7.75353 12.2377 7.30735 12.2973 6.85905 12.2995C6.17648 12.3046 5.49971 12.1738 4.86811 11.915C4.23651 11.6561 3.66269 11.2742 3.18002 10.7915C2.69735 10.3089 2.31547 9.73504 2.05659 9.10344C1.79771 8.47184 1.667 7.79507 1.67205 7.11249ZM8.78597 14.3966C8.98444 14.557 9.21907 14.6665 9.46948 14.7156C9.71988 14.7647 9.97849 14.752 10.2228 14.6785L11.5647 15.8477L11.7848 16.0457C12.1305 16.3572 12.5463 16.5807 12.9969 16.6971C13.4475 16.8134 13.9196 16.8192 14.3729 16.714C14.8262 16.6087 15.2474 16.3956 15.6007 16.0926C15.9539 15.7896 16.2288 15.4058 16.4018 14.9737C16.6043 14.4692 16.6613 13.918 16.5663 13.3828C16.4713 12.8475 16.228 12.3496 15.8643 11.9456L15.2848 11.3036L14.4971 10.4035C14.5703 10.1593 14.5829 9.90102 14.5338 9.65092C14.4847 9.40081 14.3753 9.16646 14.2152 8.96816C14.1967 8.94491 14.1769 8.9227 14.1558 8.90166L13.57 8.32374C13.6508 7.91208 13.6935 7.48774 13.6951 7.05391C13.7011 6.16228 13.5299 5.27833 13.1915 4.4534C12.8531 3.62846 12.3541 2.87897 11.7237 2.24844C11.0932 1.61791 10.3438 1.11889 9.51888 0.780371C8.69399 0.441849 7.81006 0.270561 6.91843 0.276453C3.16355 0.294661 0.10772 3.35049 0.0887197 7.10458C0.0826161 7.99641 0.253774 8.88057 0.592251 9.70571C0.930728 10.5308 1.42978 11.2805 2.06042 11.9111C2.69105 12.5418 3.44071 13.0408 4.26584 13.3793C5.09097 13.7178 5.97513 13.8889 6.86697 13.8828C7.29456 13.8807 7.72102 13.8386 8.14076 13.757L8.72422 14.3404C8.74406 14.3602 8.76493 14.379 8.78676 14.3966H8.78597ZM14.201 15.1139C13.8794 15.2415 13.5204 15.2364 13.2027 15.0996L14.7433 13.0714C15.0346 13.4395 15.109 13.9422 14.9317 14.384C14.8655 14.5488 14.7666 14.6985 14.6408 14.824C14.5151 14.9494 14.3652 15.0481 14.2002 15.1139H14.201ZM11.4491 13.681L12.1973 14.3452L13.8788 12.02L13.2351 11.2838L11.4491 13.681Z" fill="#12173D"/>
</svg>
