<svg width="17" height="17" viewBox="0 0 17 17" fill="none" xmlns="http://www.w3.org/2000/svg">
<path fill-rule="evenodd" clip-rule="evenodd" d="M1.83335 8.50049C1.83335 6.7323 2.53573 5.03652 3.78598 3.78622C5.03622 2.53591 6.73191 1.8335 8.50002 1.8335C10.2681 1.8335 11.9638 2.53591 13.2141 3.78622C14.4643 5.03652 15.1667 6.7323 15.1667 8.50049C15.1667 10.2687 14.4643 11.9645 13.2141 13.2148C11.9638 14.4651 10.2681 15.1675 8.50002 15.1675C6.73191 15.1675 5.03622 14.4651 3.78598 13.2148C2.53573 11.9645 1.83335 10.2687 1.83335 8.50049ZM8.50002 0.166748C3.89752 0.166748 0.166687 3.89777 0.166687 8.50049C0.166687 13.1032 3.89752 16.8342 8.50002 16.8342C13.1025 16.8342 16.8334 13.1032 16.8334 8.50049C16.8334 3.89777 13.1025 0.166748 8.50002 0.166748ZM5.19169 11.2023C5.16304 11.0796 5.16224 10.9521 5.18934 10.8291C5.21644 10.7061 5.27075 10.5907 5.34828 10.4914C5.42581 10.3921 5.5246 10.3115 5.63738 10.2554C5.75016 10.1993 5.87407 10.1692 6.00002 10.1672H11C11.5275 10.1672 11.9384 10.6814 11.8084 11.2006C11.3767 12.6574 9.98752 13.5007 8.50002 13.5007C7.06919 13.5007 5.55752 12.6665 5.19169 11.2023ZM12.25 6.83375C12.25 7.16528 12.1183 7.48324 11.8839 7.71767C11.6495 7.9521 11.3315 8.08381 11 8.08381C10.6685 8.08381 10.3506 7.9521 10.1161 7.71767C9.88172 7.48324 9.75002 7.16528 9.75002 6.83375C9.75002 6.50221 9.88172 6.18425 10.1161 5.94982C10.3506 5.71539 10.6685 5.58368 11 5.58368C11.3315 5.58368 11.6495 5.71539 11.8839 5.94982C12.1183 6.18425 12.25 6.50221 12.25 6.83375ZM6.00002 8.08381C6.33154 8.08381 6.64948 7.9521 6.8839 7.71767C7.11832 7.48324 7.25002 7.16528 7.25002 6.83375C7.25002 6.50221 7.11832 6.18425 6.8839 5.94982C6.64948 5.71539 6.33154 5.58368 6.00002 5.58368C5.6685 5.58368 5.35056 5.71539 5.11614 5.94982C4.88172 6.18425 4.75002 6.50221 4.75002 6.83375C4.75002 7.16528 4.88172 7.48324 5.11614 7.71767C5.35056 7.9521 5.6685 8.08381 6.00002 8.08381Z" fill="#AAABB9"/>
</svg>
