<svg width="28" height="26" viewBox="0 0 28 26" fill="none" xmlns="http://www.w3.org/2000/svg">
<path fill-rule="evenodd" clip-rule="evenodd" d="M12.3752 1.85254C12.9915 0.43155 15.0088 0.43155 15.625 1.85254L18.43 8.32135L25.4482 8.99005C26.9895 9.13598 27.6129 11.0542 26.4512 12.08L21.167 16.7467L22.6999 23.6278C23.037 25.1408 21.405 26.3252 20.0705 25.5375L14.0001 21.9546L7.92971 25.5389C6.59521 26.3267 4.96321 25.1423 5.30037 23.6292L6.83321 16.7481L1.54904 12.0814C0.387374 11.0557 1.01071 9.13739 2.55346 8.99147L9.57021 8.32277L12.3752 1.85395V1.85254ZM14.0001 5.22862L11.8369 10.2155L11.5054 10.9834L10.6724 11.0627L5.26071 11.5784L9.33504 15.1769L9.96262 15.7295L9.78129 16.5455L8.59837 21.8526L13.2805 19.0885L14.0001 18.6635L14.7198 19.0885L19.4019 21.8512L18.219 16.5455L18.0376 15.7295L18.6652 15.1769L22.7395 11.5784L17.3279 11.0627L16.4949 10.9834L16.1634 10.2155L14.0001 5.22862Z" fill="white"/>
</svg>
