<svg width="20" height="21" viewBox="0 0 20 21" fill="none" xmlns="http://www.w3.org/2000/svg">
<path fill-rule="evenodd" clip-rule="evenodd" d="M6.81589 6.87577C6.81589 6.04707 7.15047 5.2523 7.74603 4.66632C8.34159 4.08034 9.14934 3.75113 9.99158 3.75113C10.8338 3.75113 11.6416 4.08034 12.2371 4.66632C12.8327 5.2523 13.1673 6.04707 13.1673 6.87577V7.65693H13.9612C14.3261 7.65693 14.6874 7.72765 15.0246 7.86505C15.3617 8.00245 15.668 8.20384 15.926 8.45772C16.1841 8.7116 16.3888 9.013 16.5284 9.34471C16.668 9.67643 16.7399 10.032 16.7399 10.391C16.7399 10.75 16.668 11.1056 16.5284 11.4373C16.3888 11.769 16.1841 12.0704 15.926 12.3243C15.668 12.5781 15.3617 12.7795 15.0246 12.9169C14.6874 13.0543 14.3261 13.1251 13.9612 13.1251H13.8818C13.6712 13.1251 13.4693 13.2074 13.3204 13.3538C13.1715 13.5003 13.0879 13.699 13.0879 13.9062C13.0879 14.1134 13.1715 14.3121 13.3204 14.4586C13.4693 14.6051 13.6712 14.6874 13.8818 14.6874H13.9612C15.0561 14.6888 16.1116 14.2853 16.9185 13.5571C17.7253 12.8289 18.2247 11.8289 18.3176 10.7555C18.4105 9.68208 18.0901 8.61348 17.42 7.7615C16.7499 6.90951 15.7789 6.33633 14.6995 6.15554C14.5252 5.05011 13.9548 4.04248 13.0914 3.31465C12.228 2.58681 11.1285 2.18677 9.99158 2.18677C8.85464 2.18677 7.75518 2.58681 6.89179 3.31465C6.02839 4.04248 5.458 5.05011 5.28362 6.15554C4.20777 6.34035 3.24129 6.91498 2.57471 7.76618C1.90812 8.61739 1.58979 9.6834 1.68245 10.7541C1.7751 11.8248 2.27204 12.8225 3.07529 13.5506C3.87855 14.2786 4.92985 14.6842 6.02197 14.6874H6.10136C6.31192 14.6874 6.51386 14.6051 6.66275 14.4586C6.81164 14.3121 6.89529 14.1134 6.89529 13.9062C6.89529 13.699 6.81164 13.5003 6.66275 13.3538C6.51386 13.2074 6.31192 13.1251 6.10136 13.1251H6.02197C5.65706 13.1251 5.29573 13.0543 4.9586 12.9169C4.62147 12.7795 4.31514 12.5781 4.05711 12.3243C3.79909 12.0704 3.59441 11.769 3.45476 11.4373C3.31512 11.1056 3.24324 10.75 3.24324 10.391C3.24324 10.032 3.31512 9.67643 3.45476 9.34471C3.59441 9.013 3.79909 8.7116 4.05711 8.45772C4.31514 8.20384 4.62147 8.00245 4.9586 7.86505C5.29573 7.72765 5.65706 7.65693 6.02197 7.65693H6.81589V6.87577ZM10.7855 7.65693C10.7855 7.44976 10.7019 7.25107 10.553 7.10457C10.4041 6.95807 10.2021 6.87577 9.99158 6.87577C9.78102 6.87577 9.57908 6.95807 9.43019 7.10457C9.2813 7.25107 9.19766 7.44976 9.19766 7.65693V12.0205L8.17112 11.0105C8.02138 10.8682 7.82084 10.7894 7.61267 10.7912C7.40451 10.793 7.20538 10.8751 7.05818 11.02C6.91098 11.1648 6.82749 11.3607 6.82568 11.5655C6.82387 11.7704 6.90389 11.9677 7.04851 12.115L9.43028 14.4585C9.57916 14.6049 9.78106 14.6872 9.99158 14.6872C10.2021 14.6872 10.404 14.6049 10.5529 14.4585L12.9346 12.115C13.0793 11.9677 13.1593 11.7704 13.1575 11.5655C13.1557 11.3607 13.0722 11.1648 12.925 11.02C12.7778 10.8751 12.5787 10.793 12.3705 10.7912C12.1623 10.7894 11.9618 10.8682 11.812 11.0105L10.7855 12.0205V7.65693Z" fill="#AAABB9"/>
<rect x="9.16669" y="13.0206" width="1.66667" height="5.83362" rx="0.833333" fill="#AAABB9"/>
</svg>
