<svg width="9" height="16" viewBox="0 0 9 16" fill="none" xmlns="http://www.w3.org/2000/svg">
<path fill-rule="evenodd" clip-rule="evenodd" d="M8.70703 0.293031C8.8945 0.480558 8.99982 0.734866 8.99982 1.00003C8.99982 1.26519 8.8945 1.5195 8.70703 1.70703L2.41403 8.00003L8.70703 14.293C8.88919 14.4816 8.98998 14.7342 8.9877 14.9964C8.98543 15.2586 8.88026 15.5094 8.69485 15.6948C8.50944 15.8803 8.25863 15.9854 7.99643 15.9877C7.73423 15.99 7.48163 15.8892 7.29303 15.707L0.293031 8.70703C0.10556 8.5195 0.000244141 8.26519 0.000244141 8.00003C0.000244141 7.73487 0.10556 7.48056 0.293031 7.29303L7.29303 0.293031C7.48056 0.10556 7.73487 0.000244141 8.00003 0.000244141C8.26519 0.000244141 8.5195 0.10556 8.70703 0.293031Z" fill="white"/>
</svg>
