<svg width="32" height="32" viewBox="0 0 32 32" fill="none" xmlns="http://www.w3.org/2000/svg">
<path fill-rule="evenodd" clip-rule="evenodd" d="M0.41687 1.83343C0.41687 1.45771 0.566126 1.09738 0.831802 0.831699C1.09748 0.566023 1.45781 0.416767 1.83354 0.416767H3.27145C4.57376 0.416673 5.86334 0.673096 7.06655 1.17139C8.26976 1.66969 9.36303 2.40011 10.284 3.32093L14.2223 7.26068L24.3883 3.30818C25.1571 3.00919 25.9963 2.9404 26.8035 3.1102C27.6108 3.28 28.3512 3.68105 28.9344 4.26443L31.1685 6.49852C31.3231 6.65313 31.4399 6.84146 31.5097 7.04876C31.5794 7.25605 31.6002 7.47667 31.5704 7.69334C31.5406 7.91001 31.4611 8.11684 31.338 8.29764C31.215 8.47843 31.0517 8.62828 30.861 8.73543L21.0478 14.2548L24.3515 18.0302L27.5588 17.5726C28.2694 17.4711 28.9939 17.5958 29.6297 17.9289C30.2655 18.2621 30.7803 18.7869 31.1013 19.429C31.4223 20.071 31.533 20.7978 31.418 21.5063C31.3029 22.2149 30.9678 22.8692 30.4601 23.3767L23.3768 30.46C22.8693 30.9677 22.215 31.3028 21.5064 31.4179C20.7979 31.5329 20.0711 31.4221 19.4291 31.1012C18.787 30.7802 18.2622 30.2654 17.9291 29.6296C17.5959 28.9938 17.4712 28.2693 17.5727 27.5587L18.0303 24.3514L14.2549 21.0477L8.73554 30.8609C8.62842 31.0518 8.47853 31.2153 8.29761 31.3386C8.11669 31.4618 7.90968 31.5414 7.69281 31.5712C7.47595 31.601 7.25513 31.5801 7.04768 31.5102C6.84024 31.4403 6.65182 31.3233 6.4972 31.1684L4.26595 28.9343C3.68257 28.3511 3.28152 27.6107 3.11172 26.8034C2.94192 25.9962 3.01071 25.157 3.3097 24.3882L7.2622 14.2236L3.32387 10.2824C2.40253 9.36175 1.6716 8.26858 1.17281 7.06536C0.674017 5.86214 0.417148 4.57244 0.41687 3.26993V1.83343ZM3.2502 3.2501V3.27135C3.25023 5.14961 3.99625 6.95096 5.3242 8.27927L9.91845 12.8735C10.113 13.068 10.2467 13.3148 10.3033 13.584C10.36 13.8532 10.337 14.133 10.2372 14.3894L5.94895 25.4153C5.84919 25.6716 5.82621 25.9514 5.88281 26.2206C5.93941 26.4898 6.07315 26.7367 6.2677 26.9311L7.18145 27.8449L12.6399 18.1393C12.7432 17.9557 12.8862 17.7975 13.0584 17.6761C13.2306 17.5548 13.4277 17.4734 13.6353 17.4378C13.8429 17.4023 14.0559 17.4135 14.2586 17.4706C14.4614 17.5277 14.6488 17.6294 14.8074 17.7681L20.474 22.7264C20.6515 22.8815 20.7874 23.0785 20.8695 23.2994C20.9517 23.5203 20.9774 23.7582 20.9444 23.9915L20.3777 27.9582C20.3599 28.0802 20.381 28.2048 20.438 28.3142C20.4951 28.4236 20.5851 28.5122 20.6954 28.5674C20.8058 28.6227 20.9307 28.6417 21.0524 28.6219C21.1742 28.602 21.2866 28.5443 21.3736 28.4569L28.457 21.3735C28.5444 21.2865 28.6021 21.1741 28.622 21.0523C28.6418 20.9306 28.6228 20.8057 28.5675 20.6953C28.5123 20.585 28.4237 20.495 28.3143 20.4379C28.2049 20.3809 28.0804 20.3598 27.9583 20.3776L23.9916 20.9443C23.758 20.9775 23.5199 20.9519 23.2987 20.8698C23.0775 20.7877 22.8804 20.6516 22.7251 20.4739L17.7668 14.8073C17.6281 14.6487 17.5266 14.4611 17.4695 14.2583C17.4125 14.0555 17.4014 13.8425 17.4371 13.6348C17.4728 13.4272 17.5544 13.2301 17.6759 13.058C17.7973 12.8858 17.9557 12.743 18.1394 12.6398L27.8435 7.18135L26.9312 6.2676C26.7368 6.07305 26.4899 5.93931 26.2207 5.88271C25.9515 5.8261 25.6717 5.84909 25.4154 5.94885L14.388 10.2371C14.1317 10.3369 13.8519 10.3598 13.5827 10.3032C13.3135 10.2466 13.0666 10.1129 12.8722 9.91835L8.27937 5.3241C6.95107 3.99615 5.14971 3.25013 3.27145 3.2501H3.2502Z" fill="white"/>
</svg>
